<svg xmlns="http://www.w3.org/2000/svg" width="25" height="25" viewBox="0 0 25 25" fill="none">
    <path d="M17.5793 20.46C16.5993 21.41 15.5293 21.26 14.4993 20.81C13.4093 20.35 12.4093 20.33 11.2593 20.81C9.81934 21.43 9.05934 21.25 8.19934 20.46C3.31934 15.43 4.03934 7.76999 9.57934 7.48999C10.9293 7.55999 11.8693 8.22999 12.6593 8.28999C13.8393 8.04999 14.9693 7.35999 16.2293 7.44999C17.7393 7.56999 18.8793 8.16999 19.6293 9.24999C16.5093 11.12 17.2493 15.23 20.1093 16.38C19.5393 17.88 18.7993 19.37 17.5693 20.47L17.5793 20.46ZM12.5593 7.42999C12.4093 5.19999 14.2193 3.35999 16.2993 3.17999C16.5893 5.75999 13.9593 7.67999 12.5593 7.42999Z" fill="black"/>
  </svg>