<svg xmlns="http://www.w3.org/2000/svg" width="25" height="25" viewBox="0 0 25 25" fill="none">
    <path d="M12.5293 21.555C10.9875 21.5553 9.46932 21.1754 8.10939 20.4487C6.74946 19.7221 5.58973 18.6713 4.73296 17.3894C3.87618 16.1075 3.34881 14.6341 3.19756 13.0996C3.04631 11.5652 3.27586 10.0171 3.86586 8.59261C4.45587 7.16808 5.38811 5.91107 6.58001 4.93294C7.77191 3.9548 9.18666 3.28574 10.6989 2.98502C12.2112 2.68431 13.7743 2.76123 15.2497 3.20896C16.7251 3.6567 18.0674 4.46143 19.1575 5.55187C19.2624 5.65638 19.3456 5.78058 19.4024 5.91732C19.4591 6.05407 19.4884 6.20068 19.4884 6.34874C19.4884 6.49681 19.4591 6.64342 19.4024 6.78016C19.3456 6.91691 19.2624 7.0411 19.1575 7.14562C18.944 7.35294 18.6582 7.46891 18.3606 7.46891C18.063 7.46891 17.7772 7.35294 17.5637 7.14562C16.9054 6.48042 16.1211 5.95298 15.2568 5.59404C14.3924 5.2351 13.4653 5.05186 12.5293 5.05499C11.1684 5.05595 9.83628 5.44663 8.69041 6.18084C7.54455 6.91505 6.63293 7.96207 6.06336 9.19806C5.4938 10.434 5.29013 11.8073 5.47643 13.1554C5.66273 14.5035 6.23122 15.77 7.11466 16.8052C7.9981 17.8404 9.15952 18.6009 10.4616 18.9968C11.7636 19.3927 13.1518 19.4075 14.462 19.0393C15.7721 18.6711 16.9494 17.9354 17.8546 16.9192C18.7598 15.903 19.3551 14.6488 19.57 13.305H12.5293C12.231 13.305 11.9448 13.1865 11.7339 12.9755C11.5229 12.7645 11.4043 12.4784 11.4043 12.18C11.4043 11.8816 11.5229 11.5955 11.7339 11.3845C11.9448 11.1735 12.231 11.055 12.5293 11.055H20.7793C21.0777 11.055 21.3639 11.1735 21.5748 11.3845C21.7858 11.5955 21.9043 11.8816 21.9043 12.18C21.8994 14.6649 20.9101 17.0466 19.153 18.8036C17.3959 20.5607 15.0142 21.55 12.5293 21.555Z" fill="black"/>
  </svg>